<svg xmlns="http://www.w3.org/2000/svg" width="260.094" height="325.117" viewBox="0 0 260.094 325.117">
    <defs>
        <style>
            .cls-2{fill:#fc7c22}
        </style>
    </defs>
    <g id="그룹_822" transform="translate(-245 -364.941)">
        <ellipse id="타원_145" cx="130" cy="162.5" fill="#fff" rx="130" ry="162.5" transform="translate(245 365.059)"/>
        <path id="패스_730" d="M252.012 286.971v-5.133c0-21.172-12.218-30.352-25.548-30.352s-25.549 9.18-25.549 30.352V335.7h-25.974v-97.457h25.974v13.244c5.336-10.76 16.906-18.047 31.8-18.047 25.992 0 45.06 18.047 45.06 50.3v13.373c11.755-24.438 18.52-53.053 18.52-83.645 0-30.942-6.917-59.863-18.922-84.484a75.178 75.178 0 0 1 .4 7.757V188.7h-25.761v-53.86c0-21.173-12.218-30.353-25.548-30.353s-25.549 9.18-25.549 30.353v53.86h-25.974V91.243h25.974v13.244c5.336-10.76 16.906-18.047 31.8-18.047a48.022 48.022 0 0 1 17.833 3.26c-22.7-24.182-52.134-38.786-84.3-38.786-34.009 0-64.962 16.325-88.135 43.039a43.771 43.771 0 0 1 24.407-7.512c13.725 0 26.091 6.491 34.81 16.868V91.243h25.976V188.7H137.33v-12.064c-8.718 10.378-21.084 16.867-34.81 16.867-15.613 0-29.475-8.387-38.2-21.355a57.593 57.593 0 0 1-9.6-32.176 59.724 59.724 0 0 1 1.434-13.051C43.521 151.983 36.2 181.657 36.2 213.472s7.32 61.5 19.961 86.562a59.74 59.74 0 0 1-1.44-13.062c0-29.565 21.4-53.531 47.8-53.531 13.725 0 26.091 6.489 34.81 16.867v-49.93h25.976V335.7H137.33v-12.066c-8.718 10.378-21.084 16.868-34.81 16.868a43.785 43.785 0 0 1-24.4-7.5c23.172 26.709 54.123 43.03 88.128 43.03 32.862 0 62.87-15.241 85.763-40.369z" class="cls-2" transform="translate(208.798 314.028)"/>
        <ellipse id="타원_146" cx="28.316" cy="35.485" class="cls-2" rx="28.316" ry="35.485" transform="translate(289.497 418.515)"/>
        <ellipse id="타원_147" cx="28.316" cy="35.485" class="cls-2" rx="28.316" ry="35.485" transform="translate(289.497 565.515)"/>
    </g>
</svg>
