<svg xmlns="http://www.w3.org/2000/svg" width="current" height="current" viewBox="0 0 143.733 44">
    <defs>
        <style>
            .cls-1{fill:#252525}
        </style>
    </defs>
    <g id="그룹_831" transform="translate(-307.25 -26.571)">
        <g id="그룹_3" transform="translate(-159.75 214.571)">
            <g id="그룹_2" transform="translate(467 -188)">
                <g id="그룹_1">
                    <path id="패스_1" d="M389.3 84.864c0-6.637-3.831-9.515-8.01-9.515s-8.01 2.878-8.01 9.515v16.886h-8.143V71.2h8.143v4.152c1.673-3.373 5.3-5.657 9.97-5.657 8.148 0 14.126 5.657 14.126 15.77v16.288H389.3V84.864z" class="cls-1" transform="translate(-253.646 -59.255)"/>
                    <path id="패스_2" d="M214.039 84.864c0-6.637-3.831-9.515-8.01-9.515s-8.01 2.878-8.01 9.515v16.886h-8.143V71.2h8.143v4.152c1.673-3.373 5.3-5.657 9.97-5.657 8.148 0 14.126 5.657 14.126 15.77v16.288h-8.076V84.864z" class="cls-1" transform="translate(-152.11 -59.255)"/>
                    <path id="패스_3" d="M301.26 45v15.678a14.238 14.238 0 0 0-10.912-5.3c-8.276 0-14.984 7.526-14.984 16.809S282.072 89 290.347 89a14.237 14.237 0 0 0 10.912-5.3v3.789h8.141V45zm-8.877 38.333c-4.9 0-8.877-4.989-8.877-11.142s3.974-11.142 8.877-11.142 8.877 4.988 8.877 11.142-3.974 11.142-8.877 11.142z" class="cls-1" transform="translate(-201.632 -45)"/>
                    <path id="패스_4" d="M126 71.2v3.783a14.246 14.246 0 0 0-10.913-5.288 14.493 14.493 0 0 0-11.975 6.695 18.41 18.41 0 0 0 0 20.174 14.493 14.493 0 0 0 11.975 6.695A14.247 14.247 0 0 0 126 97.967v3.782h8.143V71.2zm-8.877 26.4c-4.9 0-8.877-4.98-8.877-11.124s3.974-11.124 8.877-11.124S126 80.329 126 86.473 122.021 97.6 117.118 97.6z" class="cls-1" transform="translate(-100.098 -59.255)"/>
                </g>
            </g>
        </g>
    </g>
</svg>
